<svg class="injected-svg" id="svg-1b253967-312c-465a-b6bf-2948c373e373" height="100%" width="100%" viewBox="0 0 540 508" xmlns="http://www.w3.org/2000/svg"><g xmlns="http://www.w3.org/2000/svg" fill="#000000" id="shape-svg"><title>forma_1</title><g id="Слой_2" data-name="Слой 2"><g id="Слой_1-2" data-name="Слой 1"><path transform="translate(61.55000000000001, 48.62499999999997) scale(1.4500000000000002,1.4500000000000002)" d="M109.09,267.71a41.22,41.22,0,0,1-16.5-3.36c-21.92-9.45-28.8-34.59-35.46-58.89-2.4-8.77-4.67-17-7.59-24.41s-7-15.07-11.38-23.16C26.33,135.82,14.09,113,23.24,91s34-29.29,58.05-36.22C89.87,52.3,98,50,105.13,47a238.53,238.53,0,0,0,22.16-11.16c22.09-12.06,44.92-24.53,67-15s28.8,34.59,35.46,58.89c2.41,8.76,4.67,17,7.6,24.41s7,15.07,11.37,23.16c11.83,22.07,24.07,44.9,14.92,66.9h0c-9.2,22.13-34,29.29-58.05,36.22-8.57,2.47-16.67,4.81-23.84,7.77a237.5,237.5,0,0,0-22.16,11.17C143,258.41,125.91,267.71,109.09,267.71ZM177.8,19.27c-16.42,0-33.24,9.19-49.65,18.14a238.68,238.68,0,0,1-22.34,11.25c-7.25,3-15.4,5.35-24,7.83-23.61,6.81-48,13.85-56.89,35.19s3.21,43.66,14.84,65.37c4.36,8.13,8.48,15.82,11.46,23.34s5.24,15.78,7.66,24.59c6.54,23.9,13.32,48.61,34.44,57.72s43.7-3.09,65.41-14.94a239.91,239.91,0,0,1,22.34-11.25c7.25-3,15.4-5.35,24-7.83,23.6-6.81,48-13.85,56.89-35.19h0c8.81-21.22-3.21-43.66-14.85-65.36-4.36-8.14-8.48-15.83-11.46-23.35S230.42,89,228,80.19c-6.54-23.9-13.31-48.61-34.44-57.72A39.29,39.29,0,0,0,177.8,19.27Zm85,174.56h0Z"></path><path transform="translate(61.55000000000001, 48.62499999999997) scale(1.4500000000000002,1.4500000000000002)" d="M109.1,268.32a41.72,41.72,0,0,1-16.75-3.42c-22.18-9.56-29.11-34.84-35.81-59.29-2.39-8.74-4.65-17-7.57-24.34s-7-15-11.34-23.09C25.73,136,13.43,113,22.69,90.76S57,61.16,81.12,54.19c8.56-2.47,16.65-4.8,23.78-7.75A236,236,0,0,0,127,35.31c22.21-12.13,45.18-24.67,67.51-15s29.11,34.84,35.81,59.28c2.39,8.75,4.66,17,7.57,24.35s7,15,11.35,23.1c11.89,22.19,24.2,45.14,14.94,67.41h0c-9.32,22.4-34.29,29.6-58.44,36.57-8.56,2.47-16.64,4.8-23.77,7.75a237.37,237.37,0,0,0-22.11,11.13C143.17,259,126.05,268.32,109.1,268.32ZM177.8,19.88c-16.28,0-33,9.14-49.36,18.06A238.54,238.54,0,0,1,106,49.21c-7.28,3-15.44,5.37-24.08,7.86-23.47,6.77-47.74,13.77-56.5,34.84s3.24,43.27,14.81,64.85c4.37,8.15,8.5,15.85,11.49,23.4S57,196,59.44,204.82c6.51,23.76,13.24,48.34,34.1,57.33s43.3-3.14,64.88-14.92A238.54,238.54,0,0,1,180.82,236c7.29-3,15.45-5.37,24.09-7.87,23.47-6.76,47.74-13.76,56.5-34.83h0c8.71-20.95-3.25-43.27-14.82-64.85-4.37-8.15-8.5-15.85-11.49-23.4s-5.26-15.84-7.68-24.66C220.91,56.59,214.18,32,193.32,23A38.7,38.7,0,0,0,177.8,19.88Zm85,174h0Z"></path><path transform="translate(61.55000000000001, 48.62499999999997) scale(1.4500000000000002,1.4500000000000002)" d="M109.1,268.32a41.72,41.72,0,0,1-16.75-3.42c-22.18-9.56-29.11-34.84-35.81-59.29-2.39-8.74-4.65-17-7.57-24.34s-7-15-11.34-23.09C25.73,136,13.43,113,22.69,90.76S57,61.16,81.12,54.19c8.56-2.47,16.65-4.8,23.78-7.75A236,236,0,0,0,127,35.31c22.21-12.13,45.18-24.67,67.51-15s29.11,34.84,35.81,59.28c2.39,8.75,4.66,17,7.57,24.35s7,15,11.35,23.1c11.89,22.19,24.2,45.14,14.94,67.41h0c-9.32,22.4-34.29,29.6-58.44,36.57-8.56,2.47-16.64,4.8-23.77,7.75a237.37,237.37,0,0,0-22.11,11.13C143.17,259,126.05,268.32,109.1,268.32ZM177.8,19.88c-16.28,0-33,9.14-49.36,18.06A238.54,238.54,0,0,1,106,49.21c-7.28,3-15.44,5.37-24.08,7.86-23.47,6.77-47.74,13.77-56.5,34.84s3.24,43.27,14.81,64.85c4.37,8.15,8.5,15.85,11.49,23.4S57,196,59.44,204.82c6.51,23.76,13.24,48.34,34.1,57.33s43.3-3.14,64.88-14.92A238.54,238.54,0,0,1,180.82,236c7.29-3,15.45-5.37,24.09-7.87,23.47-6.76,47.74-13.76,56.5-34.83h0c8.71-20.95-3.25-43.27-14.82-64.85-4.37-8.15-8.5-15.85-11.49-23.4s-5.26-15.84-7.68-24.66C220.91,56.59,214.18,32,193.32,23A38.7,38.7,0,0,0,177.8,19.88Zm85,174h0Z"></path><path transform="translate(61.55000000000001, 48.62499999999997) scale(1.4500000000000002,1.4500000000000002)" d="M106,279.51a45.37,45.37,0,0,1-18.2-3.72c-24.12-10.4-31.67-37.92-39-64.53-2.61-9.54-5.08-18.55-8.26-26.56s-7.65-16.38-12.37-25.18c-13-24.17-26.35-49.16-16.28-73.37C22.07,61.78,49.26,53.94,75.55,46.36c9.33-2.69,18.15-5.23,25.93-8.45s15.68-7.54,24.11-12.15c24.18-13.2,49.19-26.85,73.47-16.38C223.18,19.78,230.72,47.3,238,73.92c2.61,9.53,5.08,18.54,8.26,26.55s7.65,16.38,12.37,25.19c13,24.16,26.35,49.15,16.29,73.36h0c-10.13,24.37-37.32,32.21-63.62,39.79-9.33,2.69-18.15,5.23-25.93,8.45s-15.68,7.54-24.11,12.15C143.1,269.33,124.46,279.51,106,279.51ZM180.9,8.69c-17.78,0-36.05,10-53.87,19.71-8.5,4.64-16.53,9-24.4,12.28S85.8,46.53,76.38,49.24c-25.61,7.39-52.1,15-61.67,38.06s3.53,47.25,16.15,70.8c4.76,8.88,9.26,17.27,12.52,25.5s5.73,17.25,8.36,26.86C58.85,236.4,66.2,263.21,89,273s47.29-3.41,70.84-16.27c8.5-4.64,16.53-9,24.4-12.28s16.83-5.85,26.24-8.56c25.62-7.39,52.1-15,61.68-38.06h0c9.52-22.9-3.54-47.25-16.16-70.8-4.76-8.88-9.26-17.27-12.52-25.5s-5.73-17.24-8.36-26.86C228,48.78,220.67,22,197.87,12.13A42.5,42.5,0,0,0,180.9,8.69Zm92.64,189.76h0Z"></path><path transform="translate(61.55000000000001, 48.62499999999997) scale(1.4500000000000002,1.4500000000000002)" d="M106,279.51a45.37,45.37,0,0,1-18.2-3.72c-24.12-10.4-31.67-37.92-39-64.53-2.61-9.54-5.08-18.55-8.26-26.56s-7.65-16.38-12.37-25.18c-13-24.17-26.35-49.16-16.28-73.37C22.07,61.78,49.26,53.94,75.55,46.36c9.33-2.69,18.15-5.23,25.93-8.45s15.68-7.54,24.11-12.15c24.18-13.2,49.19-26.85,73.47-16.38C223.18,19.78,230.72,47.3,238,73.92c2.61,9.53,5.08,18.54,8.26,26.55s7.65,16.38,12.37,25.19c13,24.16,26.35,49.15,16.29,73.36h0c-10.13,24.37-37.32,32.21-63.62,39.79-9.33,2.69-18.15,5.23-25.93,8.45s-15.68,7.54-24.11,12.15C143.1,269.33,124.46,279.51,106,279.51ZM180.9,8.69c-17.78,0-36.05,10-53.87,19.71-8.5,4.64-16.53,9-24.4,12.28S85.8,46.53,76.38,49.24c-25.61,7.39-52.1,15-61.67,38.06s3.53,47.25,16.15,70.8c4.76,8.88,9.26,17.27,12.52,25.5s5.73,17.25,8.36,26.86C58.85,236.4,66.2,263.21,89,273s47.29-3.41,70.84-16.27c8.5-4.64,16.53-9,24.4-12.28s16.83-5.85,26.24-8.56c25.62-7.39,52.1-15,61.68-38.06h0c9.52-22.9-3.54-47.25-16.16-70.8-4.76-8.88-9.26-17.27-12.52-25.5s-5.73-17.24-8.36-26.86C228,48.78,220.67,22,197.87,12.13A42.5,42.5,0,0,0,180.9,8.69Zm92.64,189.76h0Z"></path><path transform="translate(61.55000000000001, 48.62499999999997) scale(1.4500000000000002,1.4500000000000002)" d="M176,273.3c-18.13,0-36-10.85-53.47-21.42-7.78-4.71-15.13-9.17-22.32-12.53s-15.56-6.19-24.33-9.14c-24.46-8.22-49.75-16.71-58.42-40s4.84-46.29,17.89-68.57c4.73-8.09,9.2-15.73,12.48-23.16S53.65,82.81,56.43,74c7.87-24.87,16-50.58,39.28-59.39s46.38,5.14,68.67,18.65c7.78,4.71,15.14,9.17,22.32,12.53S202.26,52,211,55c24.46,8.22,49.75,16.71,58.42,40h0c8.66,23.25-4.84,46.29-17.88,68.57-4.74,8.09-9.21,15.73-12.49,23.16s-5.86,15.66-8.65,24.44c-7.87,24.87-16,50.58-39.27,59.39A42.9,42.9,0,0,1,176,273.3ZM110.85,14.9a39.42,39.42,0,0,0-14.08,2.55C74.87,25.74,67,50.75,59.29,74.93c-2.81,8.87-5.46,17.25-8.77,24.75S42.67,115,37.88,123.15c-12.69,21.67-25.82,44.09-17.66,66S53,219.37,76.78,227.37c8.86,3,17.23,5.79,24.65,9.26s14.75,7.93,22.61,12.69c21.68,13.13,44.09,26.72,66.05,18.4s29.83-33.3,37.48-57.48c2.81-8.87,5.46-17.24,8.77-24.75S244.2,170.19,249,162c12.69-21.68,25.82-44.1,17.66-66h0c-8.17-22-32.77-30.22-56.56-38.22-8.86-3-17.23-5.79-24.65-9.26s-14.75-7.93-22.61-12.69C145.76,25.52,128.25,14.9,110.85,14.9Z"></path><path transform="translate(61.55000000000001, 48.62499999999997) scale(1.4500000000000002,1.4500000000000002)" d="M176,273.3c-18.13,0-36-10.85-53.47-21.42-7.78-4.71-15.13-9.17-22.32-12.53s-15.56-6.19-24.33-9.14c-24.46-8.22-49.75-16.71-58.42-40s4.84-46.29,17.89-68.57c4.73-8.09,9.2-15.73,12.48-23.16S53.65,82.81,56.43,74c7.87-24.87,16-50.58,39.28-59.39s46.38,5.14,68.67,18.65c7.78,4.71,15.14,9.17,22.32,12.53S202.26,52,211,55c24.46,8.22,49.75,16.71,58.42,40h0c8.66,23.25-4.84,46.29-17.88,68.57-4.74,8.09-9.21,15.73-12.49,23.16s-5.86,15.66-8.65,24.44c-7.87,24.87-16,50.58-39.27,59.39A42.9,42.9,0,0,1,176,273.3ZM110.85,14.9a39.42,39.42,0,0,0-14.08,2.55C74.87,25.74,67,50.75,59.29,74.93c-2.81,8.87-5.46,17.25-8.77,24.75S42.67,115,37.88,123.15c-12.69,21.67-25.82,44.09-17.66,66S53,219.37,76.78,227.37c8.86,3,17.23,5.79,24.65,9.26s14.75,7.93,22.61,12.69c21.68,13.13,44.09,26.72,66.05,18.4s29.83-33.3,37.48-57.48c2.81-8.87,5.46-17.24,8.77-24.75S244.2,170.19,249,162c12.69-21.68,25.82-44.1,17.66-66h0c-8.17-22-32.77-30.22-56.56-38.22-8.86-3-17.23-5.79-24.65-9.26s-14.75-7.93-22.61-12.69C145.76,25.52,128.25,14.9,110.85,14.9Z"></path><path transform="translate(61.55000000000001, 48.62499999999997) scale(1.4500000000000002,1.4500000000000002)" d="M180.34,211.26H106.52a1,1,0,1,1,0-2h73.82a1,1,0,1,1,0,2Z"></path><path transform="translate(61.55000000000001, 48.62499999999997) scale(1.4500000000000002,1.4500000000000002)" d="M180.34,219.36H106.52a1,1,0,1,1,0-2h73.82a1,1,0,1,1,0,2Z"></path><path transform="translate(61.55000000000001, 48.62499999999997) scale(1.4500000000000002,1.4500000000000002)" d="M180.34,69.88H106.52a1,1,0,1,1,0-2h73.82a1,1,0,0,1,0,2Z"></path><path transform="translate(61.55000000000001, 48.62499999999997) scale(1.4500000000000002,1.4500000000000002)" d="M180.34,78H106.52a1,1,0,0,1,0-2h73.82a1,1,0,0,1,0,2Z"></path><path transform="translate(61.55000000000001, 48.62499999999997) scale(1.4500000000000002,1.4500000000000002)" d="M286.91,138.48a6,6,0,1,1-6-6A6,6,0,0,1,286.91,138.48Z"></path><path transform="translate(61.55000000000001, 48.62499999999997) scale(1.4500000000000002,1.4500000000000002)" d="M12,146.79a6,6,0,1,1-6-6A6,6,0,0,1,12,146.79Z"></path><path transform="translate(61.55000000000001, 48.62499999999997) scale(1.4500000000000002,1.4500000000000002)" d="M140.18,0a3.56,3.56,0,1,1-3.56,3.56A3.56,3.56,0,0,1,140.18,0Z"></path><path transform="translate(61.55000000000001, 48.62499999999997) scale(1.4500000000000002,1.4500000000000002)" d="M149.81,278.54a3.4,3.4,0,1,1-3.4,3.4A3.4,3.4,0,0,1,149.81,278.54Z"></path></g></g></g><path xmlns="http://www.w3.org/2000/svg" id="SvgjsPath7206764" d="M6.05 0.11L6.86 0.11L8.37 0L9.07 0.05L9.99 0.11L11.50 0L13.12 0L13.82-0.32L14.47-0.70L14.63-1.51L14.63-3.13L14.74-3.89L14.74-4.48L14.63-5.89L14.63-6.80L14.69-7.45L14.63-8.21L14.74-8.96L14.74-9.67L14.63-10.26L14.58-11.18L14.90-11.77L16.15-11.77L16.90-11.72L17.66-11.88L18.47-11.83L19.17-11.83L20.68-11.72L22.14-11.72L23.60-11.83L24.19-11.77L25.76-11.83L26.62-11.99L27.05-12.53L27.38-13.39L27.38-14.85L27.43-15.77L27.49-16.47L27.38-17.23L27.32-17.87L27.32-19.49L27.43-20.95L27.16-21.82L26.57-22.25L25.76-22.52L23.65-22.52L22.73-22.68L20.63-22.52L19.76-22.63L19.12-22.63L18.31-22.68L17.66-22.52L16.90-22.68L16.15-22.63L14.96-22.52L14.58-23.22L14.63-23.92L14.63-24.79L14.58-25.33L14.74-26.03L14.58-26.89L14.96-27.54L16.09-27.49L16.90-27.43L17.71-27.49L18.41-27.43L20.52-27.59L21.28-27.59L22.19-27.43L24.41-27.43L25.06-27.54L26.51-27.43L27.38-27.49L28.84-27.54L29.65-27.76L30.19-28.24L30.35-29.11L30.40-30.62L30.40-31.37L30.35-32.13L30.35-32.83L30.46-33.75L30.35-34.45L30.35-35.10L30.46-36.72L30.19-37.42L29.65-37.96L28.78-38.23L27.27-38.29L26.57-38.39L25.81-38.29L24.95-38.39L24.35-38.29L23.49-38.23L22.84-38.29L21.98-38.39L21.17-38.23L20.52-38.34L19.71-38.39L18.95-38.29L18.09-38.23L17.39-38.34L16.58-38.29L15.98-38.34L15.23-38.29L13.66-38.29L12.85-38.34L11.39-38.34L10.69-38.23L9.77-38.29L8.96-38.23L8.37-38.39L7.61-38.29L6.70-38.39L5.99-38.34L5.24-38.34L2.86-38.07L2.43-37.48L2.11-36.67L2.21-35.15L2.16-34.45L2.21-33.64L2.05-32.89L2.11-32.08L2.21-31.37L2.16-30.62L2.11-29.81L2.21-29.05L2.11-28.30L2.21-27.59L2.21-26.08L2.11-25.22L2.05-24.46L2.11-23.81L2.16-22.90L2.11-22.19L2.11-21.38L2.05-20.68L2.21-19.98L2.05-19.12L2.16-18.36L2.16-17.60L2.21-16.96L2.16-16.09L2.16-15.28L2.11-14.53L2.05-13.88L2.16-13.01L2.05-12.37L2.05-11.61L2.21-10.80L2.05-9.88L2.21-9.13L2.21-8.48L2.05-7.78L2.21-6.97L2.11-6.21L2.21-5.35L2.11-4.64L2.16-3.94L2.21-3.02L2.11-1.46L2.48-0.81L2.92-0.32L3.73 0L5.24-0.05ZM15.98-36.02L15.66-36.29L15.82-36.61L16.09-36.61L16.25-36.45L16.25-36.02ZM23.65-34.02L23.54-34.29L23.11-34.61L22.79-34.61L22.68-34.88L22.79-35.15L23.11-35.32L23.38-35.42L23.65-35.59L23.92-35.59L24.25-35.75L24.35-35.86L24.08-36.18L23.92-36.02L23.65-36.29L23.92-36.45L25.11-36.45L25.65-36.29L25.92-36.18L26.24-36.02L26.35-35.86L26.51-35.75L26.68-35.42L26.78-35.15L26.68-35.05L26.51-35.32L26.35-35.42L25.81-35.59L25.54-35.86L24.68-35.86L24.52-35.42L24.52-35.32L24.68-35.05L24.68-34.72L24.52-34.45L24.25-34.18L23.92-34.02ZM11.29-36.02L11.29-36.29L11.83-36.29L11.83-36.02ZM10.42-35.59L10.10-35.75L9.83-35.86L10.10-36.18L10.53-35.75ZM12.69-33.86L12.10-34.02L11.99-34.29L12.26-34.61L12.53-34.72L12.69-34.88L13.23-35.15L13.66-35.15L14.09-35.42L14.26-35.59L14.53-35.75L14.85-35.86L14.96-36.02L15.12-35.86L14.96-35.59L14.53-35.32L14.42-35.05L13.99-34.72L13.66-34.72L13.23-34.45L13.12-34.18L12.96-34.02ZM27.49-35.75L27.22-35.86L27.38-36.02L27.65-35.86ZM15.82-24.41L16.47-23.92L17.06-24.52L17.71-25.00L18.36-25.06L19.01-24.89L19.76-25.06L20.41-24.95L20.90-24.95L21.55-25.00L22.14-25.00L22.84-24.95L24.79-24.95L25.33-25.00L26.08-25.06L26.62-25.00L27.32-24.95L27.86-25.00L29.21-24.89L30.46-25.06L31.16-25.16L31.86-25.54L32.35-25.87L32.56-26.41L32.83-27.16L32.94-28.40L32.99-28.94L32.94-29.59L32.94-30.19L32.99-31.00L32.94-31.48L32.89-32.18L32.99-32.72L32.94-34.02L32.72-34.56L32.56-35.21L32.02-35.59L31.48-35.21L31.59-34.13L31.43-33.37L31.59-32.83L31.48-32.18L31.59-31.54L31.59-30.73L31.43-30.13L31.48-29.43L31.54-28.13L31.32-27.49L31.05-26.84L30.51-26.51L29.70-26.51L28.57-26.35L27.86-26.30L26.62-26.41L25.92-26.35L24.57-26.46L24.03-26.46L23.38-26.35L22.73-26.41L22.03-26.30L21.38-26.35L20.84-26.46L20.20-26.41L19.49-26.41L18.90-26.30L18.36-26.46L17.55-26.35L16.96-26.41L16.47-26.35L15.98-26.08L15.82-25.06ZM17.55-34.88L17.12-35.05L16.96-35.32L16.96-35.42L17.39-35.32L17.66-35.42L18.09-35.32L17.82-34.88ZM25.38-33.48L25.38-33.59L25.22-33.86L25.22-34.61L25.11-34.88L25.22-35.32L25.54-35.32L25.81-35.05L25.81-34.45L26.08-34.18L26.24-33.86L25.92-33.59L25.81-33.48ZM6.43-34.29L6.10-34.72L6.26-34.88L6.43-34.61L6.53-34.29ZM18.95-34.45L18.79-34.61L18.95-34.72L19.12-34.61ZM9.99-31.48L9.83-31.75L9.67-31.86L9.40-32.02L9.40-32.29L9.67-32.18L10.10-32.29L10.42-32.45L10.85-32.89L10.85-33.16L10.42-33.59L10.10-33.75L10.10-34.18L10.26-34.29L10.85-34.61L10.85-34.18L10.69-33.86L10.96-33.59L11.29-33.05L11.29-32.62L11.12-32.45L10.96-32.18L10.85-32.02L10.69-31.75L10.53-31.59L10.26-31.48ZM15.23-32.45L15.23-32.72L15.12-33.05L14.85-33.48L14.69-33.75L14.69-34.02L15.12-34.29L15.39-34.29L15.66-34.61L15.82-34.45L15.55-34.02L15.55-33.32L15.66-32.72L15.55-32.62ZM20.52-33.32L20.25-33.48L20.36-33.75L20.68-33.86L20.68-33.48ZM6.86-32.62L6.53-33.05L6.53-33.59L6.70-33.75L7.13-33.75L7.29-33.48L7.29-33.16L7.13-32.89ZM13.82-33.05L13.23-33.32L13.23-33.48L13.39-33.59L13.82-33.48ZM26.35-33.32L26.24-33.48L26.51-33.59L26.51-33.32ZM27.49-33.16L27.38-33.48L27.65-33.59L27.81-33.32ZM21.98-32.45L21.38-32.62L21.22-32.89L21.38-33.05L22.09-33.05L22.36-33.16L22.68-33.32L22.79-33.48L23.65-33.48L23.81-33.05L23.54-33.05L22.68-32.72L22.36-32.62ZM5.56-33.05L5.40-33.32L5.72-33.32ZM12.10-32.62L11.83-32.89L12.10-32.89L12.26-32.72ZM27.22-31.05L26.95-31.16L27.11-31.59L27.22-32.02L27.11-32.18L26.78-32.29L26.68-32.89L27.11-32.72L27.22-32.45L27.38-32.29L27.49-31.86L27.38-31.48L27.49-31.32L27.65-31.05ZM24.79-31.59L24.79-32.02L24.95-32.18L25.11-32.45L25.54-32.72L25.81-32.62L26.08-32.29L26.35-31.86L25.92-31.75L25.65-31.86L25.22-31.75L25.11-31.59ZM14.42-31.59L14.26-31.75L13.99-31.86L13.82-32.02L13.82-32.18L14.09-32.29L14.42-32.29L14.69-32.18L14.85-32.02L14.85-31.59ZM16.25-32.02L16.42-32.29L16.52-32.29L16.79-32.18ZM22.68-31.32L22.36-31.59L22.36-31.75L22.52-32.02L22.95-32.18L23.54-32.18L23.81-32.29L24.35-32.29L24.35-32.02L24.25-31.86L24.08-31.75L23.65-31.59L22.95-31.59ZM6.43-31.32L6.26-31.48L6.26-31.75L6.43-31.86L6.70-32.02L6.86-32.02L6.70-31.75L6.53-31.59ZM21.38-31.59L21.11-31.75L21.38-32.02L21.55-31.75ZM18.79-30.89L18.52-31.05L18.25-31.16L18.09-31.32L17.98-31.59L17.98-31.75L18.25-31.59L18.52-31.48L18.68-31.32L18.79-31.05ZM15.98-31.32L15.82-31.59L16.09-31.59L16.09-31.32ZM19.98-30.89L19.82-31.05L19.82-31.16L20.09-31.05ZM15.12-30.62L15.23-31.05L15.55-30.73ZM11.29-30.62L11.12-30.89L11.39-30.89L11.39-30.73ZM5.72-30.19L5.56-30.46L5.99-30.73L6.26-30.62L6.43-30.29L5.99-30.19ZM23.92-30.29L23.92-30.62L24.25-30.46ZM20.25-29.59L19.98-29.75L20.09-30.02L20.36-30.29L20.68-30.46L21.38-30.46L21.38-30.02L21.11-29.92L20.79-29.75L20.52-29.75ZM18.41-29.16L18.41-29.48L18.68-29.75L18.52-30.02L18.79-30.29L19.12-29.75L18.79-29.59L18.68-29.32ZM26.08-29.48L25.92-30.02L26.24-30.29L26.35-30.29L26.24-29.92L26.35-29.59ZM17.98-29.75L17.66-29.92L17.82-30.02L18.09-29.92ZM7.13-28.89L6.86-29.32L7.29-29.32ZM12.85-28.30L12.96-28.62L13.12-28.30ZM5.72-27.49L5.40-27.59L5.29-27.76L5.83-27.92L6.26-28.03L6.43-28.19L6.86-28.03L6.86-27.59L6.43-27.76L6.10-27.59L5.99-27.49ZM9.83-27.59L9.56-27.76L9.40-27.92L9.40-28.19L9.99-28.19L9.99-27.76ZM10.96-26.19L10.53-26.62L10.53-27.16L10.69-27.49L10.96-27.59L10.96-27.32L11.29-26.73L11.29-26.46ZM9.56-24.35L9.67-24.62L9.83-24.46ZM5.99-23.33L5.72-23.60L5.72-24.03L6.10-23.76L6.26-23.60ZM9.56-21.76L9.56-22.36L9.67-22.63L9.83-22.46L9.83-21.92ZM4.16-22.03L4.27-22.36L4.43-22.03ZM5.72-21.76L5.40-21.92L5.29-22.03L5.56-22.19L5.83-21.92ZM11.56-21.60L11.39-21.92L11.66-21.92ZM12.96-21.33L12.85-21.60L12.85-21.92L13.12-21.92L13.23-21.76L13.23-21.33ZM3.73-20.20L3.40-20.36L3.83-20.79L3.83-21.49L4.00-21.49L4.16-21.17L4.16-20.90L4.00-20.79ZM14.26-21.06L13.99-21.33L14.26-21.49L14.53-21.33L14.42-21.06ZM7.72-18.90L7.72-19.22L7.99-19.60L7.99-19.93L7.72-20.03L7.72-20.63L8.10-20.90L8.42-20.79L8.53-20.36L8.42-20.20L8.53-19.76L8.53-19.60L8.26-19.06L8.10-18.90ZM23.54-19.76L23.22-19.93L23.22-20.20L23.38-20.47L23.54-20.36L23.92-20.03L23.92-19.76ZM16.42-19.60L16.09-19.76L15.98-20.20L16.25-20.20L16.52-19.93ZM19.82-19.60L19.55-19.76L19.39-20.20L19.82-20.20L19.98-19.93ZM12.42-19.60L12.42-19.93L12.69-19.93L12.85-19.60ZM17.39-19.60L17.23-19.76L17.23-19.93L17.55-19.93ZM21.82-19.60L21.65-19.93L21.98-19.76ZM6.48 2.59L7.67 2.48L8.96 2.48L9.56 2.54L10.31 2.59L10.85 2.65L11.56 2.59L12.10 2.59L12.91 2.54L13.55 2.59L14.04 2.59L15.34 2.54L16.15 2.43L16.63 1.94L16.96 1.46L17.17 0.76L17.17-0.38L17.23-0.97L17.23-1.62L17.17-2.38L17.12-2.86L17.17-3.67L17.12-4.27L17.12-4.75L17.06-5.40L17.12-6.10L17.12-6.70L17.17-7.29L17.17-7.94L17.23-8.53L17.50-9.23L18.47-9.18L19.06-9.29L19.55-9.23L20.36-9.34L21.01-9.18L21.60-9.23L22.09-9.18L22.84-9.23L23.33-9.18L25.33-9.34L25.92-9.23L27.27-9.29L28.46-9.61L28.94-9.99L29.43-10.48L29.70-11.02L29.81-11.66L29.92-12.85L29.81-13.61L29.81-14.20L29.97-14.90L29.81-15.55L29.86-16.31L29.92-16.90L29.75-18.25L29.70-19.01L29.43-19.49L28.94-19.76L28.51-19.60L28.57-18.41L28.46-17.77L28.57-17.12L28.46-16.42L28.57-15.77L28.40-15.12L28.51-14.31L28.40-13.72L28.35-12.37L28.40-11.83L28.13-11.29L27.49-10.85L26.78-10.69L25.38-10.69L24.84-10.75L24.14-10.64L23.44-10.69L22.95-10.58L22.14-10.64L21.60-10.75L20.36-10.64L19.66-10.75L19.06-10.75L18.25-10.69L17.71-10.69L17.01-10.64L16.04-10.75L15.77-9.99L15.71-9.34L15.66-8.80L15.71-8.05L15.66-7.51L15.66-6.86L15.77-6.26L15.66-5.62L15.71-5.08L15.77-4.43L15.77-3.19L15.82-2.38L15.71-1.78L15.71-0.54L15.66 0.16L15.23 0.70L14.63 0.97L14.09 1.08L12.15 1.08L11.34 1.19L10.80 1.19L10.15 1.08L9.40 1.24L8.86 1.08L8.15 1.19L7.56 1.24L6.86 1.08L5.02 1.08L4.81 1.62L5.13 2.16L5.72 2.32ZM9.40-19.22L9.29-19.33L9.29-19.49L9.56-19.49ZM17.98-18.79L18.09-19.22L18.41-18.79ZM7.13-18.79L6.86-18.90L6.97-19.06L7.13-19.06ZM5.13-18.20L5.40-18.79L5.56-18.90L5.56-18.36L5.29-18.20ZM24.68-18.20L24.68-18.79L24.79-18.90L25.22-18.90L25.38-18.47L25.11-18.20ZM19.12-17.77L18.68-17.93L18.95-18.20L19.22-18.36L19.66-18.79L19.82-18.63L19.55-18.36L19.22-17.93ZM7.83-17.33L7.72-17.77L7.83-18.04L8.86-18.04L9.13-18.36L9.29-18.47L9.67-18.63L9.67-18.20L9.40-18.20L8.96-17.93L8.86-17.77L8.42-17.50ZM22.95-18.04L22.52-18.36L22.79-18.63L22.95-18.47ZM18.52-16.04L18.25-16.20L18.09-16.36L17.66-16.63L17.55-16.79L17.23-16.90L16.96-17.33L17.12-17.77L16.96-18.04L16.69-18.04L16.52-18.47L16.96-18.47L17.23-18.36L17.39-18.04L17.66-17.60L17.98-16.79L18.25-16.47L18.52-16.36L18.68-16.20ZM4.16-17.33L3.83-17.50L3.73-17.77L3.73-18.36L4.27-18.36L4.43-18.04L4.43-17.50ZM7.13-17.50L6.86-17.93L6.97-18.20L7.40-18.04L7.40-17.77ZM19.98-16.47L19.82-16.79L19.66-16.90L19.66-17.50L19.98-17.93L20.25-17.93L20.36-17.50L20.25-17.23L20.09-17.06L20.09-16.79L20.25-16.47ZM23.54-17.33L23.38-17.77L23.65-17.93L23.92-17.93L24.08-17.50L23.92-17.33ZM16.79-15.93L16.69-16.20L16.42-16.63L16.25-16.47L15.98-16.63L15.98-16.90L15.82-17.50L15.82-17.60L16.09-17.77L16.42-17.60L16.52-17.50L16.69-17.23L16.69-16.90L17.12-16.04ZM9.40-17.33L9.56-17.60L9.67-17.50L9.67-17.33ZM13.12-17.23L12.69-17.33L12.96-17.60ZM13.82-17.33L13.66-17.50L13.99-17.60ZM5.40-15.34L5.29-15.50L5.13-15.93L5.56-15.77L5.83-16.04L5.83-16.36L5.40-16.47L5.29-17.06L5.40-17.23L5.56-17.50L5.83-17.33L5.83-17.23L5.99-16.79L6.26-16.79L6.43-16.36L6.43-16.04L6.10-15.50L5.83-15.34ZM11.66-16.63L11.56-16.79L11.99-17.23L11.99-16.79ZM4.70-16.79L4.70-16.90L4.97-17.06L4.97-16.79ZM7.83-15.77L7.56-15.93L7.40-16.20L7.40-16.90L7.56-16.63L7.83-16.47L7.99-16.20ZM8.86-16.63L8.96-16.90L9.13-16.90L8.96-16.63ZM22.25-16.63L22.09-16.90L22.36-16.79ZM14.85-15.34L14.53-15.66L14.53-15.93L14.69-16.36L14.96-16.63L15.23-16.20L15.12-15.66ZM24.08-16.36L23.92-16.63L24.35-16.63ZM21.98-15.77L21.82-16.04L22.09-16.04ZM19.39-15.34L19.39-15.66L19.66-15.77L19.98-15.93L20.36-15.66L19.98-15.34ZM20.09-14.20L19.82-14.36L19.98-14.80L20.36-15.23L20.52-15.34L20.68-15.66L21.11-15.77L21.38-15.66L21.38-15.34L20.95-15.23L20.68-14.47L20.36-14.20ZM23.54-15.34L23.38-15.66L23.54-15.66L23.65-15.50ZM6.97-14.36L6.86-14.63L6.86-15.07L7.13-15.50L7.40-15.50L7.40-15.07L7.29-14.80L7.13-14.47ZM10.10-14.47L10.26-14.80L10.53-15.23L10.85-15.23L10.69-14.90L10.42-14.63ZM17.12-14.80L16.79-15.07L17.23-15.23L17.39-15.07L17.23-14.80ZM4.97-13.93L4.86-14.04L4.70-14.36L4.70-14.63L4.97-14.80L4.97-14.47L5.29-13.93ZM14.26-14.47L13.99-14.80L14.26-14.80ZM23.54-14.20L23.38-14.47L23.54-14.63L23.81-14.80L23.92-14.47L23.81-14.36ZM15.55-14.04L15.66-14.20L15.98-14.47L16.09-14.63L16.42-14.47L16.09-14.20ZM12.96-12.80L12.96-13.07L13.23-13.23L13.23-13.77L12.69-13.93L12.53-14.20L13.12-14.20L13.23-14.04L13.82-13.77L13.99-13.66L13.82-13.34L13.66-13.07L13.39-12.91ZM22.09-13.66L21.65-13.93L22.09-14.20L22.25-13.93ZM11.66-12.64L11.39-12.80L10.85-12.80L10.53-12.91L10.69-13.07L10.53-13.50L10.53-13.77L10.69-13.93L10.96-14.04L11.29-14.04L11.39-13.77L11.29-13.50L11.39-13.07L11.66-12.91ZM7.72-13.66L7.56-13.77L7.83-13.93L7.99-13.66ZM7.72-12.10L7.40-12.20L7.40-12.91L7.72-13.07L7.99-13.07L8.10-12.91L7.99-12.64L7.83-12.37ZM3.13-12.47L2.97-12.64L2.97-12.80L3.29-12.80ZM6.10-11.93L6.26-12.20L6.53-12.10ZM5.56-11.23L5.29-11.34L5.56-11.50ZM10.69-9.94L10.26-10.21L10.53-10.37L11.12-10.48L11.29-10.10L10.96-9.94ZM11.66-9.34L11.66-9.50L11.83-9.67L11.83-9.34ZM9.40-8.64L9.40-8.91L9.56-9.07L9.83-8.91L9.83-8.64ZM6.86-8.21L6.86-8.37L7.13-8.53L7.40-8.37L7.13-8.21ZM9.40-5.94L9.40-6.53L9.29-6.80L9.13-7.07L9.29-7.24L9.56-6.91L9.67-6.64L9.67-6.21ZM4.70-5.94L4.86-6.21L5.13-6.53L5.29-6.37L4.97-6.10ZM9.99-5.08L9.99-5.51L10.26-5.35ZM7.99-4.97L7.72-5.08L7.99-5.24L8.10-5.08ZM6.53-3.24L5.99-3.35L5.72-3.51L5.83-3.78L6.26-3.94L6.43-3.78L6.70-3.67ZM10.26-3.35L10.42-3.67L10.85-3.78L11.12-3.94L10.96-3.67L10.69-3.51ZM7.56-3.24L7.40-3.51L7.72-3.67L7.83-3.35ZM4.27-2.54L4.00-2.65L4.16-2.97L4.27-3.08L4.54-2.97L4.43-2.81ZM37.42 0.11L38.23 0.11L39.74 0L40.45 0.05L41.36 0.11L42.88 0L44.50 0L45.20-0.32L45.85-0.70L46.01-1.51L46.01-3.13L46.12-3.89L46.12-4.48L46.01-5.89L46.01-6.80L46.06-7.45L46.01-8.21L46.12-8.96L46.12-9.67L46.01-10.26L45.95-11.18L46.28-11.77L47.52-11.77L48.28-11.72L49.03-11.88L49.84-11.83L50.54-11.83L52.06-11.72L53.51-11.72L54.97-11.83L55.57-11.77L57.13-11.83L58.00-11.99L58.43-12.53L58.75-13.39L58.75-14.85L58.81-15.77L58.86-16.47L58.75-17.23L58.70-17.87L58.70-19.49L58.81-20.95L58.54-21.82L57.94-22.25L57.13-22.52L55.03-22.52L54.11-22.68L52.00-22.52L51.14-22.63L50.49-22.63L49.68-22.68L49.03-22.52L48.28-22.68L47.52-22.63L46.33-22.52L45.95-23.22L46.01-23.92L46.01-24.79L45.95-25.33L46.12-26.03L45.95-26.89L46.33-27.54L47.47-27.49L48.28-27.43L49.09-27.49L49.79-27.43L51.89-27.59L52.65-27.59L53.57-27.43L55.78-27.43L56.43-27.54L57.89-27.43L58.75-27.49L60.21-27.54L61.02-27.76L61.56-28.24L61.72-29.11L61.78-30.62L61.78-31.37L61.72-32.13L61.72-32.83L61.83-33.75L61.72-34.45L61.72-35.10L61.83-36.72L61.56-37.42L61.02-37.96L60.16-38.23L58.64-38.29L57.94-38.39L57.19-38.29L56.32-38.39L55.73-38.29L54.86-38.23L54.22-38.29L53.35-38.39L52.54-38.23L51.89-38.34L51.08-38.39L50.33-38.29L49.46-38.23L48.76-38.34L47.95-38.29L47.36-38.34L46.60-38.29L45.04-38.29L44.23-38.34L42.77-38.34L42.07-38.23L41.15-38.29L40.34-38.23L39.74-38.39L38.99-38.29L38.07-38.39L37.37-38.34L36.61-38.34L34.24-38.07L33.80-37.48L33.48-36.67L33.59-35.15L33.53-34.45L33.59-33.64L33.43-32.89L33.48-32.08L33.59-31.37L33.53-30.62L33.48-29.81L33.59-29.05L33.48-28.30L33.59-27.59L33.59-26.08L33.48-25.22L33.43-24.46L33.48-23.81L33.53-22.90L33.48-22.19L33.48-21.38L33.43-20.68L33.59-19.98L33.43-19.12L33.53-18.36L33.53-17.60L33.59-16.96L33.53-16.09L33.53-15.28L33.48-14.53L33.43-13.88L33.53-13.01L33.43-12.37L33.43-11.61L33.59-10.80L33.43-9.88L33.59-9.13L33.59-8.48L33.43-7.78L33.59-6.97L33.48-6.21L33.59-5.35L33.48-4.64L33.53-3.94L33.59-3.02L33.48-1.46L33.86-0.81L34.29-0.32L35.10 0L36.61-0.05ZM47.36-36.02L47.03-36.29L47.20-36.61L47.47-36.61L47.63-36.45L47.63-36.02ZM55.03-34.02L54.92-34.29L54.49-34.61L54.16-34.61L54.05-34.88L54.16-35.15L54.49-35.32L54.76-35.42L55.03-35.59L55.30-35.59L55.62-35.75L55.73-35.86L55.46-36.18L55.30-36.02L55.03-36.29L55.30-36.45L56.48-36.45L57.02-36.29L57.29-36.18L57.62-36.02L57.73-35.86L57.89-35.75L58.05-35.42L58.16-35.15L58.05-35.05L57.89-35.32L57.73-35.42L57.19-35.59L56.92-35.86L56.05-35.86L55.89-35.42L55.89-35.32L56.05-35.05L56.05-34.72L55.89-34.45L55.62-34.18L55.30-34.02ZM42.66-36.02L42.66-36.29L43.20-36.29L43.20-36.02ZM41.80-35.59L41.47-35.75L41.20-35.86L41.47-36.18L41.90-35.75ZM44.06-33.86L43.47-34.02L43.36-34.29L43.63-34.61L43.90-34.72L44.06-34.88L44.60-35.15L45.04-35.15L45.47-35.42L45.63-35.59L45.90-35.75L46.22-35.86L46.33-36.02L46.49-35.86L46.33-35.59L45.90-35.32L45.79-35.05L45.36-34.72L45.04-34.72L44.60-34.45L44.50-34.18L44.33-34.02ZM58.86-35.75L58.59-35.86L58.75-36.02L59.02-35.86ZM47.20-24.41L47.84-23.92L48.44-24.52L49.09-25.00L49.73-25.06L50.38-24.89L51.14-25.06L51.79-24.95L52.27-24.95L52.92-25.00L53.51-25.00L54.22-24.95L56.16-24.95L56.70-25.00L57.46-25.06L58.00-25.00L58.70-24.95L59.24-25.00L60.59-24.89L61.83-25.06L62.53-25.16L63.23-25.54L63.72-25.87L63.94-26.41L64.21-27.16L64.31-28.40L64.37-28.94L64.31-29.59L64.31-30.19L64.37-31.00L64.31-31.48L64.26-32.18L64.37-32.72L64.31-34.02L64.10-34.56L63.94-35.21L63.40-35.59L62.86-35.21L62.96-34.13L62.80-33.37L62.96-32.83L62.86-32.18L62.96-31.54L62.96-30.73L62.80-30.13L62.86-29.43L62.91-28.13L62.69-27.49L62.42-26.84L61.88-26.51L61.07-26.51L59.94-26.35L59.24-26.30L58.00-26.41L57.29-26.35L55.94-26.46L55.40-26.46L54.76-26.35L54.11-26.41L53.41-26.30L52.76-26.35L52.22-26.46L51.57-26.41L50.87-26.41L50.27-26.30L49.73-26.46L48.92-26.35L48.33-26.41L47.84-26.35L47.36-26.08L47.20-25.06ZM48.92-34.88L48.49-35.05L48.33-35.32L48.33-35.42L48.76-35.32L49.03-35.42L49.46-35.32L49.19-34.88ZM56.75-33.48L56.75-33.59L56.59-33.86L56.59-34.61L56.48-34.88L56.59-35.32L56.92-35.32L57.19-35.05L57.19-34.45L57.46-34.18L57.62-33.86L57.29-33.59L57.19-33.48ZM37.80-34.29L37.48-34.72L37.64-34.88L37.80-34.61L37.91-34.29ZM50.33-34.45L50.17-34.61L50.33-34.72L50.49-34.61ZM41.36-31.48L41.20-31.75L41.04-31.86L40.77-32.02L40.77-32.29L41.04-32.18L41.47-32.29L41.80-32.45L42.23-32.89L42.23-33.16L41.80-33.59L41.47-33.75L41.47-34.18L41.63-34.29L42.23-34.61L42.23-34.18L42.07-33.86L42.34-33.59L42.66-33.05L42.66-32.62L42.50-32.45L42.34-32.18L42.23-32.02L42.07-31.75L41.90-31.59L41.63-31.48ZM46.60-32.45L46.60-32.72L46.49-33.05L46.22-33.48L46.06-33.75L46.06-34.02L46.49-34.29L46.76-34.29L47.03-34.61L47.20-34.45L46.93-34.02L46.93-33.32L47.03-32.72L46.93-32.62ZM51.89-33.32L51.62-33.48L51.73-33.75L52.06-33.86L52.06-33.48ZM38.23-32.62L37.91-33.05L37.91-33.59L38.07-33.75L38.50-33.75L38.66-33.48L38.66-33.16L38.50-32.89ZM45.20-33.05L44.60-33.32L44.60-33.48L44.77-33.59L45.20-33.48ZM57.73-33.32L57.62-33.48L57.89-33.59L57.89-33.32ZM58.86-33.16L58.75-33.48L59.02-33.59L59.18-33.32ZM53.35-32.45L52.76-32.62L52.60-32.89L52.76-33.05L53.46-33.05L53.73-33.16L54.05-33.32L54.16-33.48L55.03-33.48L55.19-33.05L54.92-33.05L54.05-32.72L53.73-32.62ZM36.94-33.05L36.77-33.32L37.10-33.32ZM43.47-32.62L43.20-32.89L43.47-32.89L43.63-32.72ZM58.59-31.05L58.32-31.16L58.48-31.59L58.59-32.02L58.48-32.18L58.16-32.29L58.05-32.89L58.48-32.72L58.59-32.45L58.75-32.29L58.86-31.86L58.75-31.48L58.86-31.32L59.02-31.05ZM56.16-31.59L56.16-32.02L56.32-32.18L56.48-32.45L56.92-32.72L57.19-32.62L57.46-32.29L57.73-31.86L57.29-31.75L57.02-31.86L56.59-31.75L56.48-31.59ZM45.79-31.59L45.63-31.75L45.36-31.86L45.20-32.02L45.20-32.18L45.47-32.29L45.79-32.29L46.06-32.18L46.22-32.02L46.22-31.59ZM47.63-32.02L47.79-32.29L47.90-32.29L48.17-32.18ZM54.05-31.32L53.73-31.59L53.73-31.75L53.89-32.02L54.32-32.18L54.92-32.18L55.19-32.29L55.73-32.29L55.73-32.02L55.62-31.86L55.46-31.75L55.03-31.59L54.32-31.59ZM37.80-31.32L37.64-31.48L37.64-31.75L37.80-31.86L38.07-32.02L38.23-32.02L38.07-31.75L37.91-31.59ZM52.76-31.59L52.49-31.75L52.76-32.02L52.92-31.75ZM50.17-30.89L49.90-31.05L49.63-31.16L49.46-31.32L49.36-31.59L49.36-31.75L49.63-31.59L49.90-31.48L50.06-31.32L50.17-31.05ZM47.36-31.32L47.20-31.59L47.47-31.59L47.47-31.32ZM51.35-30.89L51.19-31.05L51.19-31.16L51.46-31.05ZM46.49-30.62L46.60-31.05L46.93-30.73ZM42.66-30.62L42.50-30.89L42.77-30.89L42.77-30.73ZM37.10-30.19L36.94-30.46L37.37-30.73L37.64-30.62L37.80-30.29L37.37-30.19ZM55.30-30.29L55.30-30.62L55.62-30.46ZM51.62-29.59L51.35-29.75L51.46-30.02L51.73-30.29L52.06-30.46L52.76-30.46L52.76-30.02L52.49-29.92L52.16-29.75L51.89-29.75ZM49.79-29.16L49.79-29.48L50.06-29.75L49.90-30.02L50.17-30.29L50.49-29.75L50.17-29.59L50.06-29.32ZM57.46-29.48L57.29-30.02L57.62-30.29L57.73-30.29L57.62-29.92L57.73-29.59ZM49.36-29.75L49.03-29.92L49.19-30.02L49.46-29.92ZM38.50-28.89L38.23-29.32L38.66-29.32ZM44.23-28.30L44.33-28.62L44.50-28.30ZM37.10-27.49L36.77-27.59L36.67-27.76L37.21-27.92L37.64-28.03L37.80-28.19L38.23-28.03L38.23-27.59L37.80-27.76L37.48-27.59L37.37-27.49ZM41.20-27.59L40.93-27.76L40.77-27.92L40.77-28.19L41.36-28.19L41.36-27.76ZM42.34-26.19L41.90-26.62L41.90-27.16L42.07-27.49L42.34-27.59L42.34-27.32L42.66-26.73L42.66-26.46ZM40.93-24.35L41.04-24.62L41.20-24.46ZM37.37-23.33L37.10-23.60L37.10-24.03L37.48-23.76L37.64-23.60ZM40.93-21.76L40.93-22.36L41.04-22.63L41.20-22.46L41.20-21.92ZM35.53-22.03L35.64-22.36L35.80-22.03ZM37.10-21.76L36.77-21.92L36.67-22.03L36.94-22.19L37.21-21.92ZM42.93-21.60L42.77-21.92L43.04-21.92ZM44.33-21.33L44.23-21.60L44.23-21.92L44.50-21.92L44.60-21.76L44.60-21.33ZM35.10-20.20L34.78-20.36L35.21-20.79L35.21-21.49L35.37-21.49L35.53-21.17L35.53-20.90L35.37-20.79ZM45.63-21.06L45.36-21.33L45.63-21.49L45.90-21.33L45.79-21.06ZM39.10-18.90L39.10-19.22L39.37-19.60L39.37-19.93L39.10-20.03L39.10-20.63L39.47-20.90L39.80-20.79L39.91-20.36L39.80-20.20L39.91-19.76L39.91-19.60L39.64-19.06L39.47-18.90ZM54.92-19.76L54.59-19.93L54.59-20.20L54.76-20.47L54.92-20.36L55.30-20.03L55.30-19.76ZM47.79-19.60L47.47-19.76L47.36-20.20L47.63-20.20L47.90-19.93ZM51.19-19.60L50.92-19.76L50.76-20.20L51.19-20.20L51.35-19.93ZM43.79-19.60L43.79-19.93L44.06-19.93L44.23-19.60ZM48.76-19.60L48.60-19.76L48.60-19.93L48.92-19.93ZM53.19-19.60L53.03-19.93L53.35-19.76ZM37.85 2.59L39.04 2.48L40.34 2.48L40.93 2.54L41.69 2.59L42.23 2.65L42.93 2.59L43.47 2.59L44.28 2.54L44.93 2.59L45.41 2.59L46.71 2.54L47.52 2.43L48.01 1.94L48.33 1.46L48.55 0.76L48.55-0.38L48.60-0.97L48.60-1.62L48.55-2.38L48.49-2.86L48.55-3.67L48.49-4.27L48.49-4.75L48.44-5.40L48.49-6.10L48.49-6.70L48.55-7.29L48.55-7.94L48.60-8.53L48.87-9.23L49.84-9.18L50.44-9.29L50.92-9.23L51.73-9.34L52.38-9.18L52.97-9.23L53.46-9.18L54.22-9.23L54.70-9.18L56.70-9.34L57.29-9.23L58.64-9.29L59.83-9.61L60.32-9.99L60.80-10.48L61.07-11.02L61.18-11.66L61.29-12.85L61.18-13.61L61.18-14.20L61.34-14.90L61.18-15.55L61.24-16.31L61.29-16.90L61.13-18.25L61.07-19.01L60.80-19.49L60.32-19.76L59.89-19.60L59.94-18.41L59.83-17.77L59.94-17.12L59.83-16.42L59.94-15.77L59.78-15.12L59.89-14.31L59.78-13.72L59.72-12.37L59.78-11.83L59.51-11.29L58.86-10.85L58.16-10.69L56.75-10.69L56.21-10.75L55.51-10.64L54.81-10.69L54.32-10.58L53.51-10.64L52.97-10.75L51.73-10.64L51.03-10.75L50.44-10.75L49.63-10.69L49.09-10.69L48.38-10.64L47.41-10.75L47.14-9.99L47.09-9.34L47.03-8.80L47.09-8.05L47.03-7.51L47.03-6.86L47.14-6.26L47.03-5.62L47.09-5.08L47.14-4.43L47.14-3.19L47.20-2.38L47.09-1.78L47.09-0.54L47.03 0.16L46.60 0.70L46.01 0.97L45.47 1.08L43.52 1.08L42.71 1.19L42.17 1.19L41.53 1.08L40.77 1.24L40.23 1.08L39.53 1.19L38.93 1.24L38.23 1.08L36.40 1.08L36.18 1.62L36.50 2.16L37.10 2.32ZM40.77-19.22L40.66-19.33L40.66-19.49L40.93-19.49ZM49.36-18.79L49.46-19.22L49.79-18.79ZM38.50-18.79L38.23-18.90L38.34-19.06L38.50-19.06ZM36.50-18.20L36.77-18.79L36.94-18.90L36.94-18.36L36.67-18.20ZM56.05-18.20L56.05-18.79L56.16-18.90L56.59-18.90L56.75-18.47L56.48-18.20ZM50.49-17.77L50.06-17.93L50.33-18.20L50.60-18.36L51.03-18.79L51.19-18.63L50.92-18.36L50.60-17.93ZM39.20-17.33L39.10-17.77L39.20-18.04L40.23-18.04L40.50-18.36L40.66-18.47L41.04-18.63L41.04-18.20L40.77-18.20L40.34-17.93L40.23-17.77L39.80-17.50ZM54.32-18.04L53.89-18.36L54.16-18.63L54.32-18.47ZM49.90-16.04L49.63-16.20L49.46-16.36L49.03-16.63L48.92-16.79L48.60-16.90L48.33-17.33L48.49-17.77L48.33-18.04L48.06-18.04L47.90-18.47L48.33-18.47L48.60-18.36L48.76-18.04L49.03-17.60L49.36-16.79L49.63-16.47L49.90-16.36L50.06-16.20ZM35.53-17.33L35.21-17.50L35.10-17.77L35.10-18.36L35.64-18.36L35.80-18.04L35.80-17.50ZM38.50-17.50L38.23-17.93L38.34-18.20L38.77-18.04L38.77-17.77ZM51.35-16.47L51.19-16.79L51.03-16.90L51.03-17.50L51.35-17.93L51.62-17.93L51.73-17.50L51.62-17.23L51.46-17.06L51.46-16.79L51.62-16.47ZM54.92-17.33L54.76-17.77L55.03-17.93L55.30-17.93L55.46-17.50L55.30-17.33ZM48.17-15.93L48.06-16.20L47.79-16.63L47.63-16.47L47.36-16.63L47.36-16.90L47.20-17.50L47.20-17.60L47.47-17.77L47.79-17.60L47.90-17.50L48.06-17.23L48.06-16.90L48.49-16.04ZM40.77-17.33L40.93-17.60L41.04-17.50L41.04-17.33ZM44.50-17.23L44.06-17.33L44.33-17.60ZM45.20-17.33L45.04-17.50L45.36-17.60ZM36.77-15.34L36.67-15.50L36.50-15.93L36.94-15.77L37.21-16.04L37.21-16.36L36.77-16.47L36.67-17.06L36.77-17.23L36.94-17.50L37.21-17.33L37.21-17.23L37.37-16.79L37.64-16.79L37.80-16.36L37.80-16.04L37.48-15.50L37.21-15.34ZM43.04-16.63L42.93-16.79L43.36-17.23L43.36-16.79ZM36.07-16.79L36.07-16.90L36.34-17.06L36.34-16.79ZM39.20-15.77L38.93-15.93L38.77-16.20L38.77-16.90L38.93-16.63L39.20-16.47L39.37-16.20ZM40.23-16.63L40.34-16.90L40.50-16.90L40.34-16.63ZM53.62-16.63L53.46-16.90L53.73-16.79ZM46.22-15.34L45.90-15.66L45.90-15.93L46.06-16.36L46.33-16.63L46.60-16.20L46.49-15.66ZM55.46-16.36L55.30-16.63L55.73-16.63ZM53.35-15.77L53.19-16.04L53.46-16.04ZM50.76-15.34L50.76-15.66L51.03-15.77L51.35-15.93L51.73-15.66L51.35-15.34ZM51.46-14.20L51.19-14.36L51.35-14.80L51.73-15.23L51.89-15.34L52.06-15.66L52.49-15.77L52.76-15.66L52.76-15.34L52.33-15.23L52.06-14.47L51.73-14.20ZM54.92-15.34L54.76-15.66L54.92-15.66L55.03-15.50ZM38.34-14.36L38.23-14.63L38.23-15.07L38.50-15.50L38.77-15.50L38.77-15.07L38.66-14.80L38.50-14.47ZM41.47-14.47L41.63-14.80L41.90-15.23L42.23-15.23L42.07-14.90L41.80-14.63ZM48.49-14.80L48.17-15.07L48.60-15.23L48.76-15.07L48.60-14.80ZM36.34-13.93L36.23-14.04L36.07-14.36L36.07-14.63L36.34-14.80L36.34-14.47L36.67-13.93ZM45.63-14.47L45.36-14.80L45.63-14.80ZM54.92-14.20L54.76-14.47L54.92-14.63L55.19-14.80L55.30-14.47L55.19-14.36ZM46.93-14.04L47.03-14.20L47.36-14.47L47.47-14.63L47.79-14.47L47.47-14.20ZM44.33-12.80L44.33-13.07L44.60-13.23L44.60-13.77L44.06-13.93L43.90-14.20L44.50-14.20L44.60-14.04L45.20-13.77L45.36-13.66L45.20-13.34L45.04-13.07L44.77-12.91ZM53.46-13.66L53.03-13.93L53.46-14.20L53.62-13.93ZM43.04-12.64L42.77-12.80L42.23-12.80L41.90-12.91L42.07-13.07L41.90-13.50L41.90-13.77L42.07-13.93L42.34-14.04L42.66-14.04L42.77-13.77L42.66-13.50L42.77-13.07L43.04-12.91ZM39.10-13.66L38.93-13.77L39.20-13.93L39.37-13.66ZM39.10-12.10L38.77-12.20L38.77-12.91L39.10-13.07L39.37-13.07L39.47-12.91L39.37-12.64L39.20-12.37ZM34.51-12.47L34.34-12.64L34.34-12.80L34.67-12.80ZM37.48-11.93L37.64-12.20L37.91-12.10ZM36.94-11.23L36.67-11.34L36.94-11.50ZM42.07-9.94L41.63-10.21L41.90-10.37L42.50-10.48L42.66-10.10L42.34-9.94ZM43.04-9.34L43.04-9.50L43.20-9.67L43.20-9.34ZM40.77-8.64L40.77-8.91L40.93-9.07L41.20-8.91L41.20-8.64ZM38.23-8.21L38.23-8.37L38.50-8.53L38.77-8.37L38.50-8.21ZM40.77-5.94L40.77-6.53L40.66-6.80L40.50-7.07L40.66-7.24L40.93-6.91L41.04-6.64L41.04-6.21ZM36.07-5.94L36.23-6.21L36.50-6.53L36.67-6.37L36.34-6.10ZM41.36-5.08L41.36-5.51L41.63-5.35ZM39.37-4.97L39.10-5.08L39.37-5.24L39.47-5.08ZM37.91-3.24L37.37-3.35L37.10-3.51L37.21-3.78L37.64-3.94L37.80-3.78L38.07-3.67ZM41.63-3.35L41.80-3.67L42.23-3.78L42.50-3.94L42.34-3.67L42.07-3.51ZM38.93-3.24L38.77-3.51L39.10-3.67L39.20-3.35ZM35.64-2.54L35.37-2.65L35.53-2.97L35.64-3.08L35.91-2.97L35.80-2.81Z" fill="#343a40" fontsize="54" transform="matrix(1,0,0,1,237.29,273.37)"></path></svg>