<?xml version="1.0" encoding="UTF-8" standalone="no"?> <svg id="Layer_1" data-name="Layer 1" xmlns="http://www.w3.org/2000/svg" viewBox="0 0 512 512"><title>Shopping Cart</title><path d="M408.921,326.971l38.613-172.991A21.333,21.333,0,0,0,426.714,128H122.335l-1.543-6.945A31.815,31.815,0,0,0,89.552,96H58.667a10.667,10.667,0,0,0,0,21.333H89.552a10.609,10.609,0,0,1,10.417,8.354L157.81,385.98a42.731,42.731,0,1,0,49.768,19.353H341.755A42.642,42.642,0,1,0,378.667,384H179.224l-7.111-32H377.689A32,32,0,0,0,408.921,326.971ZM170.667,445.333a18.667,18.667,0,1,1,18.667-18.667A18.666,18.666,0,0,1,170.667,445.333Zm226.667-18.667A18.667,18.667,0,1,1,378.667,408,18.666,18.666,0,0,1,397.333,426.667Z"/></svg>