<svg xmlns="http://www.w3.org/2000/svg" data-name="Layer 1" viewBox="0 0 512 512" width="256" height="256"><g data-name="&amp;lt;Group&amp;gt;" fill="#000000" class="color000 svgShape"><path fill="#24b361" d="M84.151,101.521A121.809,121.809,0,0,1,256,101.106,121.812,121.812,0,0,1,428.269,273.373L256.418,446.159l-.415-.467-.416.467L83.736,273.373a121.762,121.762,0,0,1,.415-171.852Z" data-name="&amp;lt;Path&amp;gt;" class="color24b361 svgShape"></path></g><g data-name="&amp;lt;Group&amp;gt;" fill="#000000" class="color000 svgShape"><path fill="#24b361" d="M342.029,56h-.31A130.821,130.821,0,0,0,256,87.591,131.786,131.786,0,0,0,76.646,280.43L248.5,453.213a10,10,0,0,0,7.375,2.944c.044,0,.087,0,.13-.006l.133,0c.094,0,.188,0,.283,0a10,10,0,0,0,7.09-2.948l171.867-172.8A131.7,131.7,0,0,0,342.029,56Zm79.15,210.321L256,432.4,90.845,266.341A111.7,111.7,0,0,1,170.022,76h.263a111.054,111.054,0,0,1,78.681,32.291,10,10,0,0,0,14.073.04A111.087,111.087,0,0,1,341.72,76h.263a110.735,110.735,0,0,1,78.8,32.672l0-.036a111.713,111.713,0,0,1,.392,157.685Z" data-name="&amp;lt;Compound Path&amp;gt;" class="color24b361 svgShape"></path></g></svg>